<?xml version="1.0" standalone="no"?>
<!DOCTYPE svg PUBLIC "-//W3C//DTD SVG 20010904//EN"
 "http://www.w3.org/TR/2001/REC-SVG-20010904/DTD/svg10.dtd">
<svg version="1.0" xmlns="http://www.w3.org/2000/svg"
 width="349.000000pt" height="349.000000pt" viewBox="0 0 349.000000 349.000000"
 preserveAspectRatio="xMidYMid meet">
<metadata>
Created by potrace 1.14, written by Peter Selinger 2001-2017
</metadata>
<g transform="translate(0.000000,349.000000) scale(0.100000,-0.100000)"
fill="#000000" stroke="none">
<path d="M1240 3383 c-8 -3 -25 -15 -38 -26 -12 -12 -35 -22 -50 -23 -81 -6
-139 -18 -162 -34 -14 -9 -42 -23 -62 -31 -21 -7 -49 -23 -64 -36 -15 -13 -33
-23 -40 -23 -8 0 -21 -11 -30 -24 -8 -14 -29 -28 -45 -31 -16 -4 -31 -11 -34
-16 -3 -4 -22 -16 -41 -25 -35 -17 -62 -55 -70 -101 -7 -40 -43 -103 -58 -103
-8 0 -16 -10 -20 -23 -3 -13 -19 -38 -36 -55 -16 -18 -30 -40 -31 -49 -1 -10
-2 -43 -3 -73 -1 -40 -10 -70 -31 -109 -26 -47 -30 -64 -29 -130 0 -42 3 -88
6 -103 6 -23 0 -33 -33 -61 -21 -19 -39 -39 -39 -46 0 -7 -19 -46 -41 -87 -37
-67 -42 -83 -45 -156 -2 -50 1 -89 9 -102 15 -28 17 -52 25 -316 4 -124 3
-242 -2 -262 -7 -30 -5 -44 9 -64 14 -22 15 -28 4 -35 -8 -5 -17 -9 -21 -9
-15 0 -8 -27 17 -72 26 -46 28 -105 5 -147 -8 -16 -6 -21 9 -26 12 -4 18 -12
14 -21 -3 -8 7 -39 22 -70 15 -30 25 -64 22 -74 -3 -10 4 -32 14 -49 11 -18
19 -41 19 -52 0 -22 22 -52 97 -138 26 -29 43 -58 43 -73 0 -17 18 -42 59 -81
33 -32 63 -57 68 -57 5 0 14 -13 20 -30 6 -16 20 -33 30 -37 10 -4 34 -19 53
-34 30 -23 88 -49 112 -49 5 0 34 -10 65 -22 42 -16 79 -21 133 -21 41 1 80
-3 87 -8 15 -13 126 -4 131 11 3 8 8 8 17 0 10 -8 21 -7 44 4 16 9 41 16 53
16 13 0 51 7 83 16 33 9 71 16 84 15 13 0 46 6 73 14 27 8 55 12 62 9 8 -3 17
-1 21 5 3 6 16 11 28 11 23 0 127 102 127 126 0 8 5 14 10 14 6 0 37 25 70 55
64 59 90 73 149 80 25 3 46 15 69 40 32 35 52 44 52 25 0 -5 6 -10 14 -10 9 0
16 -12 18 -28 2 -20 11 -30 33 -37 28 -10 68 -43 109 -92 15 -19 16 -25 6 -38
-7 -9 -8 -15 -2 -15 6 0 23 -11 39 -24 16 -14 43 -28 59 -32 16 -4 34 -9 39
-13 18 -10 39 -10 52 0 7 7 25 8 45 3 101 -23 154 9 268 166 25 34 57 69 72
78 35 21 53 57 57 118 1 6 20 33 43 59 29 33 42 58 43 79 3 61 17 132 36 178
23 56 22 78 -3 183 -11 44 -22 94 -25 110 -3 17 -22 51 -44 77 -26 31 -39 56
-39 77 0 16 -4 33 -10 36 -5 3 -10 17 -10 30 0 12 -6 25 -13 28 -26 10 -97 0
-114 -16 -17 -15 -21 -15 -52 0 -26 13 -37 14 -50 5 -40 -30 -162 -71 -211
-71 -25 -1 -43 16 -34 30 12 20 9 103 -6 139 -12 28 -11 35 10 72 23 41 24 80
5 187 -9 44 1 81 22 81 13 0 15 8 9 46 -6 43 -4 48 28 78 111 102 148 142 166
176 22 43 26 75 10 85 -13 8 -13 66 0 99 7 20 6 26 -4 26 -11 0 -12 19 -8 93
2 50 8 100 13 109 5 9 6 24 3 33 -4 9 -1 20 5 25 7 4 14 23 16 43 2 19 11 47
21 61 13 22 15 32 6 51 -7 15 -8 26 -2 30 6 4 10 49 10 100 0 107 2 105 -92
125 -46 10 -69 10 -120 0 -35 -7 -76 -14 -93 -15 -21 -1 -32 -9 -40 -27 -8
-22 -14 -24 -34 -16 -15 5 -35 5 -51 -1 -17 -5 -45 -5 -76 1 -27 5 -56 11 -64
12 -8 2 -24 -1 -35 -7 -11 -6 -61 -11 -111 -12 -49 -1 -95 -5 -102 -9 -16 -10
-42 -73 -48 -116 -2 -19 -10 -37 -16 -41 -21 -13 -87 30 -123 79 -38 53 -95
164 -95 186 0 9 -9 20 -20 26 -11 6 -20 18 -20 26 0 8 -4 13 -10 9 -5 -3 -16
8 -24 24 -17 33 -28 38 -99 46 -26 3 -66 14 -90 25 -23 10 -71 21 -107 24 -36
3 -81 9 -100 15 -19 6 -35 11 -35 10 0 0 -7 -3 -15 -6z m228 -788 c15 -14 32
-25 38 -25 15 0 50 -40 58 -66 11 -37 52 -76 123 -118 51 -31 69 -48 71 -66 2
-14 17 -54 34 -90 38 -81 118 -366 118 -419 0 -22 5 -43 10 -46 16 -10 12 -33
-10 -63 -10 -15 -22 -49 -25 -77 -7 -52 -41 -113 -84 -150 -23 -21 -32 -52
-50 -177 -1 -4 -24 -33 -51 -64 -28 -32 -53 -68 -56 -80 -3 -12 -13 -25 -22
-29 -35 -13 -82 -51 -82 -66 0 -8 -13 -25 -30 -37 -16 -13 -30 -29 -30 -37 0
-8 -5 -15 -11 -15 -6 0 -26 -12 -45 -26 -34 -26 -34 -26 -76 -9 -52 20 -73 38
-106 90 -29 45 -34 62 -21 71 25 15 -5 84 -38 84 -14 0 -15 3 -19 75 -4 69
-18 128 -50 210 -19 51 -28 92 -29 150 -2 44 -5 89 -8 100 -26 108 -24 157 9
207 26 41 30 63 13 73 -21 14 -26 50 -12 100 8 27 14 80 14 118 -1 116 79 400
108 383 5 -3 44 -7 87 -8 57 -1 87 3 109 15 38 20 31 21 63 -8z"/>
</g>
</svg>
